<mxfile host="Electron" modified="2023-07-06T23:39:00.068Z" agent="Mozilla/5.0 (Windows NT 10.0; Win64; x64) AppleWebKit/537.36 (KHTML, like Gecko) draw.io/21.6.1 Chrome/112.0.5615.204 Electron/24.6.1 Safari/537.36" etag="0v8MqszYf4FRR3kOVTAT" version="21.6.1" type="device">
  <diagram name="페이지-1" id="6NAG38WOrdtEemOPV-Ih">
    <mxGraphModel dx="1036" dy="214" grid="1" gridSize="10" guides="1" tooltips="1" connect="1" arrows="1" fold="1" page="0" pageScale="1" pageWidth="827" pageHeight="1169" math="0" shadow="0">
      <root>
        <mxCell id="0" />
        <mxCell id="1" parent="0" />
        <mxCell id="MUR59FjTD8Jj9N_ozBMk-1" value="" style="endArrow=none;html=1;rounded=0;" parent="1" edge="1">
          <mxGeometry width="50" height="50" relative="1" as="geometry">
            <mxPoint x="80" y="920" as="sourcePoint" />
            <mxPoint x="80" y="680" as="targetPoint" />
          </mxGeometry>
        </mxCell>
        <mxCell id="MUR59FjTD8Jj9N_ozBMk-2" value="" style="endArrow=none;html=1;rounded=0;" parent="1" edge="1">
          <mxGeometry width="50" height="50" relative="1" as="geometry">
            <mxPoint x="80" y="920" as="sourcePoint" />
            <mxPoint x="840" y="920" as="targetPoint" />
          </mxGeometry>
        </mxCell>
        <mxCell id="MUR59FjTD8Jj9N_ozBMk-3" value="0" style="text;html=1;align=center;verticalAlign=middle;resizable=0;points=[];autosize=1;strokeColor=none;fillColor=none;" parent="1" vertex="1">
          <mxGeometry x="105" y="920" width="30" height="30" as="geometry" />
        </mxCell>
        <mxCell id="MUR59FjTD8Jj9N_ozBMk-4" value="1" style="text;html=1;align=center;verticalAlign=middle;resizable=0;points=[];autosize=1;strokeColor=none;fillColor=none;" parent="1" vertex="1">
          <mxGeometry x="144" y="920" width="30" height="30" as="geometry" />
        </mxCell>
        <mxCell id="MUR59FjTD8Jj9N_ozBMk-5" value="2" style="text;html=1;align=center;verticalAlign=middle;resizable=0;points=[];autosize=1;strokeColor=none;fillColor=none;" parent="1" vertex="1">
          <mxGeometry x="186" y="920" width="30" height="30" as="geometry" />
        </mxCell>
        <mxCell id="MUR59FjTD8Jj9N_ozBMk-6" value="3" style="text;html=1;align=center;verticalAlign=middle;resizable=0;points=[];autosize=1;strokeColor=none;fillColor=none;" parent="1" vertex="1">
          <mxGeometry x="225" y="920" width="30" height="30" as="geometry" />
        </mxCell>
        <mxCell id="MUR59FjTD8Jj9N_ozBMk-7" value="4" style="text;html=1;align=center;verticalAlign=middle;resizable=0;points=[];autosize=1;strokeColor=none;fillColor=none;" parent="1" vertex="1">
          <mxGeometry x="265" y="920" width="30" height="30" as="geometry" />
        </mxCell>
        <mxCell id="MUR59FjTD8Jj9N_ozBMk-8" value="5" style="text;html=1;align=center;verticalAlign=middle;resizable=0;points=[];autosize=1;strokeColor=none;fillColor=none;" parent="1" vertex="1">
          <mxGeometry x="304" y="920" width="30" height="30" as="geometry" />
        </mxCell>
        <mxCell id="MUR59FjTD8Jj9N_ozBMk-9" value="6" style="text;html=1;align=center;verticalAlign=middle;resizable=0;points=[];autosize=1;strokeColor=none;fillColor=none;" parent="1" vertex="1">
          <mxGeometry x="346" y="920" width="30" height="30" as="geometry" />
        </mxCell>
        <mxCell id="MUR59FjTD8Jj9N_ozBMk-10" value="7" style="text;html=1;align=center;verticalAlign=middle;resizable=0;points=[];autosize=1;strokeColor=none;fillColor=none;" parent="1" vertex="1">
          <mxGeometry x="385" y="920" width="30" height="30" as="geometry" />
        </mxCell>
        <mxCell id="MUR59FjTD8Jj9N_ozBMk-11" value="8" style="text;html=1;align=center;verticalAlign=middle;resizable=0;points=[];autosize=1;strokeColor=none;fillColor=none;" parent="1" vertex="1">
          <mxGeometry x="426" y="920" width="30" height="30" as="geometry" />
        </mxCell>
        <mxCell id="MUR59FjTD8Jj9N_ozBMk-12" value="9" style="text;html=1;align=center;verticalAlign=middle;resizable=0;points=[];autosize=1;strokeColor=none;fillColor=none;" parent="1" vertex="1">
          <mxGeometry x="465" y="920" width="30" height="30" as="geometry" />
        </mxCell>
        <mxCell id="MUR59FjTD8Jj9N_ozBMk-13" value="10" style="text;html=1;align=center;verticalAlign=middle;resizable=0;points=[];autosize=1;strokeColor=none;fillColor=none;" parent="1" vertex="1">
          <mxGeometry x="502" y="920" width="40" height="30" as="geometry" />
        </mxCell>
        <mxCell id="MUR59FjTD8Jj9N_ozBMk-14" value="11" style="text;html=1;align=center;verticalAlign=middle;resizable=0;points=[];autosize=1;strokeColor=none;fillColor=none;" parent="1" vertex="1">
          <mxGeometry x="541" y="920" width="40" height="30" as="geometry" />
        </mxCell>
        <mxCell id="MUR59FjTD8Jj9N_ozBMk-15" value="12" style="text;html=1;align=center;verticalAlign=middle;resizable=0;points=[];autosize=1;strokeColor=none;fillColor=none;" parent="1" vertex="1">
          <mxGeometry x="581" y="920" width="40" height="30" as="geometry" />
        </mxCell>
        <mxCell id="MUR59FjTD8Jj9N_ozBMk-16" value="13" style="text;html=1;align=center;verticalAlign=middle;resizable=0;points=[];autosize=1;strokeColor=none;fillColor=none;" parent="1" vertex="1">
          <mxGeometry x="620" y="920" width="40" height="30" as="geometry" />
        </mxCell>
        <mxCell id="MUR59FjTD8Jj9N_ozBMk-17" value="14" style="text;html=1;align=center;verticalAlign=middle;resizable=0;points=[];autosize=1;strokeColor=none;fillColor=none;" parent="1" vertex="1">
          <mxGeometry x="662" y="920" width="40" height="30" as="geometry" />
        </mxCell>
        <mxCell id="MUR59FjTD8Jj9N_ozBMk-18" value="15" style="text;html=1;align=center;verticalAlign=middle;resizable=0;points=[];autosize=1;strokeColor=none;fillColor=none;" parent="1" vertex="1">
          <mxGeometry x="701" y="920" width="40" height="30" as="geometry" />
        </mxCell>
        <mxCell id="MUR59FjTD8Jj9N_ozBMk-19" value="16" style="text;html=1;align=center;verticalAlign=middle;resizable=0;points=[];autosize=1;strokeColor=none;fillColor=none;" parent="1" vertex="1">
          <mxGeometry x="741" y="920" width="40" height="30" as="geometry" />
        </mxCell>
        <mxCell id="MUR59FjTD8Jj9N_ozBMk-20" value="17" style="text;html=1;align=center;verticalAlign=middle;resizable=0;points=[];autosize=1;strokeColor=none;fillColor=none;" parent="1" vertex="1">
          <mxGeometry x="780" y="920" width="40" height="30" as="geometry" />
        </mxCell>
        <mxCell id="MUR59FjTD8Jj9N_ozBMk-21" value="" style="endArrow=none;html=1;rounded=0;" parent="1" edge="1">
          <mxGeometry width="50" height="50" relative="1" as="geometry">
            <mxPoint x="120" y="880" as="sourcePoint" />
            <mxPoint x="320" y="880" as="targetPoint" />
          </mxGeometry>
        </mxCell>
        <mxCell id="MUR59FjTD8Jj9N_ozBMk-22" value="" style="endArrow=none;html=1;rounded=0;" parent="1" edge="1">
          <mxGeometry width="50" height="50" relative="1" as="geometry">
            <mxPoint x="160" y="870" as="sourcePoint" />
            <mxPoint x="200" y="870" as="targetPoint" />
          </mxGeometry>
        </mxCell>
        <mxCell id="MUR59FjTD8Jj9N_ozBMk-23" value="" style="endArrow=none;html=1;rounded=0;" parent="1" edge="1">
          <mxGeometry width="50" height="50" relative="1" as="geometry">
            <mxPoint x="200" y="860" as="sourcePoint" />
            <mxPoint x="320" y="860" as="targetPoint" />
          </mxGeometry>
        </mxCell>
        <mxCell id="MUR59FjTD8Jj9N_ozBMk-24" value="" style="endArrow=none;html=1;rounded=0;" parent="1" edge="1">
          <mxGeometry width="50" height="50" relative="1" as="geometry">
            <mxPoint x="240" y="850" as="sourcePoint" />
            <mxPoint x="360" y="850" as="targetPoint" />
          </mxGeometry>
        </mxCell>
        <mxCell id="MUR59FjTD8Jj9N_ozBMk-25" value="" style="endArrow=none;html=1;rounded=0;" parent="1" edge="1">
          <mxGeometry width="50" height="50" relative="1" as="geometry">
            <mxPoint x="320" y="840" as="sourcePoint" />
            <mxPoint x="360" y="840" as="targetPoint" />
          </mxGeometry>
        </mxCell>
        <mxCell id="MUR59FjTD8Jj9N_ozBMk-26" value="" style="endArrow=none;html=1;rounded=0;" parent="1" edge="1">
          <mxGeometry width="50" height="50" relative="1" as="geometry">
            <mxPoint x="360" y="830" as="sourcePoint" />
            <mxPoint x="520" y="830" as="targetPoint" />
          </mxGeometry>
        </mxCell>
        <mxCell id="MUR59FjTD8Jj9N_ozBMk-27" value="" style="endArrow=none;html=1;rounded=0;" parent="1" edge="1">
          <mxGeometry width="50" height="50" relative="1" as="geometry">
            <mxPoint x="400" y="820" as="sourcePoint" />
            <mxPoint x="440" y="820" as="targetPoint" />
          </mxGeometry>
        </mxCell>
        <mxCell id="MUR59FjTD8Jj9N_ozBMk-28" value="" style="endArrow=none;html=1;rounded=0;" parent="1" edge="1">
          <mxGeometry width="50" height="50" relative="1" as="geometry">
            <mxPoint x="480" y="810" as="sourcePoint" />
            <mxPoint x="680" y="810" as="targetPoint" />
          </mxGeometry>
        </mxCell>
        <mxCell id="MUR59FjTD8Jj9N_ozBMk-29" value="" style="endArrow=none;html=1;rounded=0;" parent="1" edge="1">
          <mxGeometry width="50" height="50" relative="1" as="geometry">
            <mxPoint x="520" y="800" as="sourcePoint" />
            <mxPoint x="560" y="800" as="targetPoint" />
          </mxGeometry>
        </mxCell>
        <mxCell id="MUR59FjTD8Jj9N_ozBMk-30" value="" style="endArrow=none;html=1;rounded=0;" parent="1" edge="1">
          <mxGeometry width="50" height="50" relative="1" as="geometry">
            <mxPoint x="600" y="790" as="sourcePoint" />
            <mxPoint x="720" y="790" as="targetPoint" />
          </mxGeometry>
        </mxCell>
        <mxCell id="MUR59FjTD8Jj9N_ozBMk-31" value="" style="endArrow=none;html=1;rounded=0;" parent="1" edge="1">
          <mxGeometry width="50" height="50" relative="1" as="geometry">
            <mxPoint x="640" y="780" as="sourcePoint" />
            <mxPoint x="760" y="780" as="targetPoint" />
          </mxGeometry>
        </mxCell>
        <mxCell id="Xbryrnv222GJK-hQLkVt-1" value="" style="endArrow=none;html=1;rounded=0;" parent="1" edge="1">
          <mxGeometry width="50" height="50" relative="1" as="geometry">
            <mxPoint x="80" y="1360" as="sourcePoint" />
            <mxPoint x="80" y="1120" as="targetPoint" />
          </mxGeometry>
        </mxCell>
        <mxCell id="Xbryrnv222GJK-hQLkVt-2" value="" style="endArrow=none;html=1;rounded=0;" parent="1" edge="1">
          <mxGeometry width="50" height="50" relative="1" as="geometry">
            <mxPoint x="80" y="1360" as="sourcePoint" />
            <mxPoint x="840" y="1360" as="targetPoint" />
          </mxGeometry>
        </mxCell>
        <mxCell id="Xbryrnv222GJK-hQLkVt-3" value="0" style="text;html=1;align=center;verticalAlign=middle;resizable=0;points=[];autosize=1;strokeColor=none;fillColor=none;" parent="1" vertex="1">
          <mxGeometry x="105" y="1360" width="30" height="30" as="geometry" />
        </mxCell>
        <mxCell id="Xbryrnv222GJK-hQLkVt-4" value="1" style="text;html=1;align=center;verticalAlign=middle;resizable=0;points=[];autosize=1;strokeColor=none;fillColor=none;" parent="1" vertex="1">
          <mxGeometry x="144" y="1360" width="30" height="30" as="geometry" />
        </mxCell>
        <mxCell id="Xbryrnv222GJK-hQLkVt-5" value="2" style="text;html=1;align=center;verticalAlign=middle;resizable=0;points=[];autosize=1;strokeColor=none;fillColor=none;" parent="1" vertex="1">
          <mxGeometry x="186" y="1360" width="30" height="30" as="geometry" />
        </mxCell>
        <mxCell id="Xbryrnv222GJK-hQLkVt-6" value="3" style="text;html=1;align=center;verticalAlign=middle;resizable=0;points=[];autosize=1;strokeColor=none;fillColor=none;" parent="1" vertex="1">
          <mxGeometry x="225" y="1360" width="30" height="30" as="geometry" />
        </mxCell>
        <mxCell id="Xbryrnv222GJK-hQLkVt-7" value="4" style="text;html=1;align=center;verticalAlign=middle;resizable=0;points=[];autosize=1;strokeColor=none;fillColor=none;" parent="1" vertex="1">
          <mxGeometry x="265" y="1360" width="30" height="30" as="geometry" />
        </mxCell>
        <mxCell id="Xbryrnv222GJK-hQLkVt-8" value="5" style="text;html=1;align=center;verticalAlign=middle;resizable=0;points=[];autosize=1;strokeColor=none;fillColor=none;" parent="1" vertex="1">
          <mxGeometry x="304" y="1360" width="30" height="30" as="geometry" />
        </mxCell>
        <mxCell id="Xbryrnv222GJK-hQLkVt-9" value="6" style="text;html=1;align=center;verticalAlign=middle;resizable=0;points=[];autosize=1;strokeColor=none;fillColor=none;" parent="1" vertex="1">
          <mxGeometry x="346" y="1360" width="30" height="30" as="geometry" />
        </mxCell>
        <mxCell id="Xbryrnv222GJK-hQLkVt-10" value="7" style="text;html=1;align=center;verticalAlign=middle;resizable=0;points=[];autosize=1;strokeColor=none;fillColor=none;" parent="1" vertex="1">
          <mxGeometry x="385" y="1360" width="30" height="30" as="geometry" />
        </mxCell>
        <mxCell id="Xbryrnv222GJK-hQLkVt-11" value="8" style="text;html=1;align=center;verticalAlign=middle;resizable=0;points=[];autosize=1;strokeColor=none;fillColor=none;" parent="1" vertex="1">
          <mxGeometry x="426" y="1360" width="30" height="30" as="geometry" />
        </mxCell>
        <mxCell id="Xbryrnv222GJK-hQLkVt-12" value="9" style="text;html=1;align=center;verticalAlign=middle;resizable=0;points=[];autosize=1;strokeColor=none;fillColor=none;" parent="1" vertex="1">
          <mxGeometry x="465" y="1360" width="30" height="30" as="geometry" />
        </mxCell>
        <mxCell id="Xbryrnv222GJK-hQLkVt-13" value="10" style="text;html=1;align=center;verticalAlign=middle;resizable=0;points=[];autosize=1;strokeColor=none;fillColor=none;" parent="1" vertex="1">
          <mxGeometry x="502" y="1360" width="40" height="30" as="geometry" />
        </mxCell>
        <mxCell id="Xbryrnv222GJK-hQLkVt-14" value="11" style="text;html=1;align=center;verticalAlign=middle;resizable=0;points=[];autosize=1;strokeColor=none;fillColor=none;" parent="1" vertex="1">
          <mxGeometry x="541" y="1360" width="40" height="30" as="geometry" />
        </mxCell>
        <mxCell id="Xbryrnv222GJK-hQLkVt-15" value="12" style="text;html=1;align=center;verticalAlign=middle;resizable=0;points=[];autosize=1;strokeColor=none;fillColor=none;" parent="1" vertex="1">
          <mxGeometry x="581" y="1360" width="40" height="30" as="geometry" />
        </mxCell>
        <mxCell id="Xbryrnv222GJK-hQLkVt-16" value="13" style="text;html=1;align=center;verticalAlign=middle;resizable=0;points=[];autosize=1;strokeColor=none;fillColor=none;" parent="1" vertex="1">
          <mxGeometry x="620" y="1360" width="40" height="30" as="geometry" />
        </mxCell>
        <mxCell id="Xbryrnv222GJK-hQLkVt-17" value="14" style="text;html=1;align=center;verticalAlign=middle;resizable=0;points=[];autosize=1;strokeColor=none;fillColor=none;" parent="1" vertex="1">
          <mxGeometry x="662" y="1360" width="40" height="30" as="geometry" />
        </mxCell>
        <mxCell id="Xbryrnv222GJK-hQLkVt-18" value="15" style="text;html=1;align=center;verticalAlign=middle;resizable=0;points=[];autosize=1;strokeColor=none;fillColor=none;" parent="1" vertex="1">
          <mxGeometry x="701" y="1360" width="40" height="30" as="geometry" />
        </mxCell>
        <mxCell id="Xbryrnv222GJK-hQLkVt-19" value="16" style="text;html=1;align=center;verticalAlign=middle;resizable=0;points=[];autosize=1;strokeColor=none;fillColor=none;" parent="1" vertex="1">
          <mxGeometry x="741" y="1360" width="40" height="30" as="geometry" />
        </mxCell>
        <mxCell id="Xbryrnv222GJK-hQLkVt-20" value="17" style="text;html=1;align=center;verticalAlign=middle;resizable=0;points=[];autosize=1;strokeColor=none;fillColor=none;" parent="1" vertex="1">
          <mxGeometry x="780" y="1360" width="40" height="30" as="geometry" />
        </mxCell>
        <mxCell id="Xbryrnv222GJK-hQLkVt-21" value="" style="endArrow=none;html=1;rounded=0;" parent="1" edge="1">
          <mxGeometry width="50" height="50" relative="1" as="geometry">
            <mxPoint x="121" y="1320" as="sourcePoint" />
            <mxPoint x="321" y="1320" as="targetPoint" />
          </mxGeometry>
        </mxCell>
        <mxCell id="Xbryrnv222GJK-hQLkVt-22" value="" style="endArrow=none;html=1;rounded=0;" parent="1" edge="1">
          <mxGeometry width="50" height="50" relative="1" as="geometry">
            <mxPoint x="161" y="1080" as="sourcePoint" />
            <mxPoint x="201" y="1080" as="targetPoint" />
          </mxGeometry>
        </mxCell>
        <mxCell id="Xbryrnv222GJK-hQLkVt-23" value="" style="endArrow=none;html=1;rounded=0;" parent="1" edge="1">
          <mxGeometry width="50" height="50" relative="1" as="geometry">
            <mxPoint x="201" y="1070" as="sourcePoint" />
            <mxPoint x="321" y="1070" as="targetPoint" />
          </mxGeometry>
        </mxCell>
        <mxCell id="Xbryrnv222GJK-hQLkVt-24" value="" style="endArrow=none;html=1;rounded=0;" parent="1" edge="1">
          <mxGeometry width="50" height="50" relative="1" as="geometry">
            <mxPoint x="241" y="1060" as="sourcePoint" />
            <mxPoint x="361" y="1060" as="targetPoint" />
          </mxGeometry>
        </mxCell>
        <mxCell id="Xbryrnv222GJK-hQLkVt-25" value="" style="endArrow=none;html=1;rounded=0;" parent="1" edge="1">
          <mxGeometry width="50" height="50" relative="1" as="geometry">
            <mxPoint x="321" y="1050" as="sourcePoint" />
            <mxPoint x="361" y="1050" as="targetPoint" />
          </mxGeometry>
        </mxCell>
        <mxCell id="Xbryrnv222GJK-hQLkVt-26" value="" style="endArrow=none;html=1;rounded=0;" parent="1" edge="1">
          <mxGeometry width="50" height="50" relative="1" as="geometry">
            <mxPoint x="361" y="1040" as="sourcePoint" />
            <mxPoint x="521" y="1040" as="targetPoint" />
          </mxGeometry>
        </mxCell>
        <mxCell id="Xbryrnv222GJK-hQLkVt-27" value="" style="endArrow=none;html=1;rounded=0;" parent="1" edge="1">
          <mxGeometry width="50" height="50" relative="1" as="geometry">
            <mxPoint x="401" y="1030" as="sourcePoint" />
            <mxPoint x="441" y="1030" as="targetPoint" />
          </mxGeometry>
        </mxCell>
        <mxCell id="Xbryrnv222GJK-hQLkVt-28" value="" style="endArrow=none;html=1;rounded=0;" parent="1" edge="1">
          <mxGeometry width="50" height="50" relative="1" as="geometry">
            <mxPoint x="481" y="1020" as="sourcePoint" />
            <mxPoint x="681" y="1020" as="targetPoint" />
          </mxGeometry>
        </mxCell>
        <mxCell id="Xbryrnv222GJK-hQLkVt-29" value="" style="endArrow=none;html=1;rounded=0;" parent="1" edge="1">
          <mxGeometry width="50" height="50" relative="1" as="geometry">
            <mxPoint x="521" y="1010" as="sourcePoint" />
            <mxPoint x="561" y="1010" as="targetPoint" />
          </mxGeometry>
        </mxCell>
        <mxCell id="Xbryrnv222GJK-hQLkVt-30" value="" style="endArrow=none;html=1;rounded=0;" parent="1" edge="1">
          <mxGeometry width="50" height="50" relative="1" as="geometry">
            <mxPoint x="601" y="1000" as="sourcePoint" />
            <mxPoint x="721" y="1000" as="targetPoint" />
          </mxGeometry>
        </mxCell>
        <mxCell id="Xbryrnv222GJK-hQLkVt-31" value="" style="endArrow=none;html=1;rounded=0;" parent="1" edge="1">
          <mxGeometry width="50" height="50" relative="1" as="geometry">
            <mxPoint x="641" y="990" as="sourcePoint" />
            <mxPoint x="761" y="990" as="targetPoint" />
          </mxGeometry>
        </mxCell>
        <mxCell id="Xbryrnv222GJK-hQLkVt-32" value="main start :&amp;nbsp;" style="text;html=1;strokeColor=none;fillColor=none;align=left;verticalAlign=middle;whiteSpace=wrap;rounded=0;" parent="1" vertex="1">
          <mxGeometry x="80" y="1400" width="150" height="30" as="geometry" />
        </mxCell>
        <mxCell id="Xbryrnv222GJK-hQLkVt-33" value="main end :&amp;nbsp;" style="text;html=1;strokeColor=none;fillColor=none;align=left;verticalAlign=middle;whiteSpace=wrap;rounded=0;" parent="1" vertex="1">
          <mxGeometry x="80" y="1530" width="260" height="30" as="geometry" />
        </mxCell>
        <mxCell id="Xbryrnv222GJK-hQLkVt-34" value="sub start :&amp;nbsp;" style="text;html=1;align=left;verticalAlign=middle;resizable=0;points=[];autosize=1;strokeColor=none;fillColor=none;" parent="1" vertex="1">
          <mxGeometry x="80" y="1438" width="80" height="30" as="geometry" />
        </mxCell>
        <mxCell id="Xbryrnv222GJK-hQLkVt-35" value="sub end :&amp;nbsp;" style="text;html=1;align=left;verticalAlign=middle;resizable=0;points=[];autosize=1;strokeColor=none;fillColor=none;" parent="1" vertex="1">
          <mxGeometry x="80" y="1480" width="80" height="30" as="geometry" />
        </mxCell>
      </root>
    </mxGraphModel>
  </diagram>
</mxfile>
